<?xml version="1.0" standalone="no"?><!DOCTYPE svg PUBLIC "-//W3C//DTD SVG 1.1//EN" "http://www.w3.org/Graphics/SVG/1.1/DTD/svg11.dtd"><svg t="1592621492558" class="icon" viewBox="0 0 1024 1024" version="1.1" xmlns="http://www.w3.org/2000/svg" p-id="1145" xmlns:xlink="http://www.w3.org/1999/xlink" width="200" height="200"><defs><style type="text/css"></style></defs><path d="M768 614.4H597.333333a17.066667 17.066667 0 1 1 0-34.133333h170.666667c42.922667 0 78.592-14.830933 109.1072-45.346134C907.042133 504.968533 921.6 469.5552 921.6 426.666667c0-42.9568-14.574933-78.677333-44.5952-109.2096C846.660267 287.658667 810.9568 273.066667 768 273.066667a97.28 97.28 0 0 0-11.5712 0.7168 17.2032 17.2032 0 0 1-18.193067-11.3152c-11.605333-33.194667-30.907733-63.470933-57.3952-89.975467C633.668267 125.320533 578.4576 102.4 512 102.4s-121.668267 22.920533-168.840533 70.0928S273.066667 274.875733 273.066667 341.333333v6.826667a17.066667 17.066667 0 0 1-22.6816 16.110933A112.6912 112.6912 0 0 0 213.333333 358.4c-30.856533 0-56.490667 10.6496-78.3872 32.546133S102.4 438.4768 102.4 469.333333s10.6496 56.490667 32.546133 78.3872C156.8256 569.617067 182.459733 580.266667 213.333333 580.266667H426.666667a17.066667 17.066667 0 1 1 0 34.133333H213.333333c-39.8336 0-74.325333-14.318933-102.519466-42.5472C82.5856 543.6416 68.266667 509.1328 68.266667 469.333333s14.318933-74.2912 42.5472-102.519466S173.533867 324.266667 213.333333 324.266667c8.942933 0 17.6128 0.7168 25.9584 2.116266 3.3792-68.625067 30.1568-128.443733 79.7184-178.0224C372.1728 95.214933 437.0944 68.266667 512 68.266667c74.922667 0 139.8272 26.948267 192.9728 80.093866 26.88 26.897067 47.3088 57.326933 60.859733 90.589867L768 238.933333c51.6096 0 96.4096 18.295467 133.137067 54.391467C937.437867 330.257067 955.733333 375.04 955.733333 426.666667c0 51.677867-18.3296 96.221867-54.493866 132.386133C864.529067 595.780267 819.694933 614.4 768 614.4z" p-id="1146"></path><path d="M511.146667 972.8a33.9968 33.9968 0 0 1-24.32-10.1888l-170.478934-170.478933a34.133333 34.133333 0 1 1 48.264534-48.264534l112.401066 112.401067V520.533333a34.133333 34.133333 0 0 1 68.266667 0v335.735467l112.401067-112.401067a34.133333 34.133333 0 1 1 48.264533 48.264534l-170.666667 170.666666-0.034133 0.034134A33.928533 33.928533 0 0 1 511.146667 972.8z" p-id="1147"></path></svg>